M48
; DRILL file {KiCad 9.0.2} date 2025-09-25T10:32:28+0300
; FORMAT={-:-/ absolute / metric / decimal}
; #@! TF.CreationDate,2025-09-25T10:32:28+03:00
; #@! TF.GenerationSoftware,Kicad,Pcbnew,9.0.2
; #@! TF.FileFunction,Plated,1,2,PTH
FMAT,2
METRIC
; #@! TA.AperFunction,Plated,PTH,ViaDrill
T1C0.250
; #@! TA.AperFunction,Plated,PTH,ComponentDrill
T2C0.250
; #@! TA.AperFunction,Plated,PTH,ViaDrill
T3C0.300
; #@! TA.AperFunction,Plated,PTH,ViaDrill
T4C0.350
; #@! TA.AperFunction,Plated,PTH,ComponentDrill
T5C1.000
; #@! TA.AperFunction,Plated,PTH,ComponentDrill
T6C1.100
%
G90
G05
T1
X122.4Y-96.55
X122.41Y-98.43
X124.75Y-95.75
X124.83Y-100.53
X125.73Y-96.95
X126.24Y-94.64
X127.43Y-89.25
X130.72Y-105.43
X133.3Y-103.71
X133.365Y-104.965
X135.48Y-91.02
X135.59Y-101.36
X136.762Y-97.9
X137.47Y-92.285
X138.16Y-104.35
X139.21Y-104.48
X139.23Y-100.1
X139.7Y-101.7
X139.8Y-96.89
X140.22Y-94.98
X142.14Y-87.07
X143.11Y-112.29
X143.97Y-86.97
X144.29Y-97.73
X144.3Y-96.115
X144.62Y-98.4
X145.55Y-112.7
X145.69Y-101.97
X145.9Y-103.08
X146.06Y-113.71
X146.43Y-113.01
X147.48Y-88.49
X148.65Y-83.05
X148.78Y-98.34
X149.085Y-107.77
X149.32Y-97.4
X150.08Y-107.35
X150.17Y-106.09
X150.24Y-91.12
X150.61Y-102.74
X151.01Y-102.11
X151.08Y-100.21
X153.11Y-109.4
X153.35Y-112.18
X153.84Y-109.56
X154.1Y-111.38
X154.399Y-104.718
X154.54Y-100.1
X154.57Y-109.73
X154.62Y-110.76
X155.23Y-93.51
X155.44Y-100.92
X156.38Y-99.29
X156.61Y-111.67
X157.53Y-109.87
X158.28Y-94.77
X158.498Y-88.49
X159.4Y-94.73
X160.37Y-94.75
X160.98Y-88.49
X161.1Y-90.19
X161.13Y-99.28
X161.22Y-94.79
X161.69Y-100.17
X161.87Y-97.33
X162.13Y-94.78
X162.34Y-101.08
X162.38Y-90.18
X162.5Y-108.6
X163.24Y-109.58
X163.34Y-108.23
X163.97Y-103.4
X165.88Y-101.42
X168.6Y-112.6
X169.29Y-103.58
X169.764Y-99.72
X170.22Y-82.0
X171.08Y-91.56
X172.23Y-103.68
X173.79Y-88.03
X176.3Y-91.515
X176.81Y-90.14
X180.25Y-92.4
T2
X121.95Y-89.05
X121.95Y-90.75
X122.65Y-84.9
X122.65Y-89.9
X123.35Y-89.05
X123.35Y-90.75
X124.167Y-84.9
X125.45Y-84.9
X126.7Y-84.9
T3
X119.7Y-85.45
X120.0Y-90.3
X120.579Y-98.49
X121.2Y-94.65
X121.59Y-101.3
X122.9Y-106.9
X124.9Y-80.2
X125.1Y-94.65
X125.25Y-82.9
X125.537Y-101.309
X125.65Y-107.55
X126.539Y-100.901
X126.6Y-98.2
X127.45Y-82.1
X127.75Y-108.55
X128.0Y-91.0
X129.05Y-90.6
X129.241Y-106.357
X129.422Y-91.54
X130.3Y-114.9
X130.305Y-109.958
X131.55Y-84.75
X133.25Y-83.75
X134.65Y-83.75
X136.96Y-90.894
X138.25Y-117.25
X139.3Y-83.0
X139.4Y-80.5
X139.599Y-91.014
X139.9Y-100.65
X140.054Y-99.265
X140.527Y-104.469
X140.528Y-110.571
X140.75Y-115.15
X140.8Y-81.75
X141.3Y-86.7
X141.95Y-83.6
X144.2Y-94.7
X145.55Y-83.95
X145.662Y-90.453
X147.45Y-85.1
X152.2Y-116.6
X152.943Y-85.046
X154.257Y-83.019
X155.1Y-95.25
X155.85Y-84.85
X157.15Y-101.2
X159.65Y-85.55
X163.49Y-104.084
X164.298Y-83.501
X164.812Y-102.73
X167.3Y-91.5
X169.982Y-108.475
X170.619Y-113.825
X172.25Y-83.8
X172.7Y-91.1
X172.976Y-110.235
X174.191Y-99.696
X174.2Y-108.2
X174.376Y-113.151
X174.434Y-103.166
X175.748Y-93.633
X181.8Y-105.95
T4
X131.59Y-95.81
T5
X140.77Y-117.45
X143.31Y-117.45
X143.96Y-79.75
X145.85Y-117.45
X146.5Y-79.75
X148.39Y-117.45
X149.04Y-79.75
X150.93Y-117.45
X151.58Y-79.75
X153.47Y-117.45
X154.12Y-79.75
X156.01Y-117.45
X156.66Y-79.75
X158.55Y-117.45
X161.09Y-117.45
X161.11Y-79.76
X163.63Y-117.45
X163.65Y-79.76
X166.17Y-117.45
X166.19Y-79.76
X168.71Y-117.45
X168.73Y-79.76
X171.25Y-117.45
X171.27Y-79.76
X173.79Y-117.45
X173.81Y-79.76
X182.58Y-86.13
X182.58Y-88.67
X182.58Y-91.21
X182.58Y-93.75
X182.58Y-96.29
X182.58Y-98.83
T6
X127.63Y-114.73
X132.63Y-114.73
X179.8Y-104.55
X179.8Y-109.55
M30
