%TF.GenerationSoftware,KiCad,Pcbnew,9.0.2*%
%TF.CreationDate,2025-09-25T10:32:18+03:00*%
%TF.ProjectId,uPIC46,75504943-3436-42e6-9b69-6361645f7063,V0*%
%TF.SameCoordinates,Original*%
%TF.FileFunction,Paste,Top*%
%TF.FilePolarity,Positive*%
%FSLAX46Y46*%
G04 Gerber Fmt 4.6, Leading zero omitted, Abs format (unit mm)*
G04 Created by KiCad (PCBNEW 9.0.2) date 2025-09-25 10:32:18*
%MOMM*%
%LPD*%
G01*
G04 APERTURE LIST*
G04 Aperture macros list*
%AMRoundRect*
0 Rectangle with rounded corners*
0 $1 Rounding radius*
0 $2 $3 $4 $5 $6 $7 $8 $9 X,Y pos of 4 corners*
0 Add a 4 corners polygon primitive as box body*
4,1,4,$2,$3,$4,$5,$6,$7,$8,$9,$2,$3,0*
0 Add four circle primitives for the rounded corners*
1,1,$1+$1,$2,$3*
1,1,$1+$1,$4,$5*
1,1,$1+$1,$6,$7*
1,1,$1+$1,$8,$9*
0 Add four rect primitives between the rounded corners*
20,1,$1+$1,$2,$3,$4,$5,0*
20,1,$1+$1,$4,$5,$6,$7,0*
20,1,$1+$1,$6,$7,$8,$9,0*
20,1,$1+$1,$8,$9,$2,$3,0*%
G04 Aperture macros list end*
%ADD10RoundRect,0.075000X0.275000X-0.390000X0.275000X0.390000X-0.275000X0.390000X-0.275000X-0.390000X0*%
%ADD11RoundRect,0.075000X0.275000X-0.075000X0.275000X0.075000X-0.275000X0.075000X-0.275000X-0.075000X0*%
%ADD12RoundRect,0.218750X-0.256250X0.218750X-0.256250X-0.218750X0.256250X-0.218750X0.256250X0.218750X0*%
%ADD13RoundRect,0.225000X0.250000X-0.225000X0.250000X0.225000X-0.250000X0.225000X-0.250000X-0.225000X0*%
%ADD14RoundRect,0.225000X0.225000X0.250000X-0.225000X0.250000X-0.225000X-0.250000X0.225000X-0.250000X0*%
%ADD15R,1.500000X2.700000*%
%ADD16RoundRect,0.200000X0.275000X-0.200000X0.275000X0.200000X-0.275000X0.200000X-0.275000X-0.200000X0*%
%ADD17RoundRect,0.150000X-0.825000X-0.150000X0.825000X-0.150000X0.825000X0.150000X-0.825000X0.150000X0*%
%ADD18RoundRect,0.200000X-0.200000X-0.275000X0.200000X-0.275000X0.200000X0.275000X-0.200000X0.275000X0*%
%ADD19RoundRect,0.200000X-0.275000X0.200000X-0.275000X-0.200000X0.275000X-0.200000X0.275000X0.200000X0*%
%ADD20RoundRect,0.218750X-0.218750X-0.256250X0.218750X-0.256250X0.218750X0.256250X-0.218750X0.256250X0*%
%ADD21RoundRect,0.225000X-0.225000X-0.250000X0.225000X-0.250000X0.225000X0.250000X-0.225000X0.250000X0*%
%ADD22RoundRect,0.250000X0.650000X-0.325000X0.650000X0.325000X-0.650000X0.325000X-0.650000X-0.325000X0*%
%ADD23RoundRect,0.150000X0.587500X0.150000X-0.587500X0.150000X-0.587500X-0.150000X0.587500X-0.150000X0*%
%ADD24RoundRect,0.218750X0.218750X0.256250X-0.218750X0.256250X-0.218750X-0.256250X0.218750X-0.256250X0*%
%ADD25RoundRect,0.225000X-0.250000X0.225000X-0.250000X-0.225000X0.250000X-0.225000X0.250000X0.225000X0*%
%ADD26R,1.100000X1.900000*%
%ADD27RoundRect,0.150000X-0.425000X0.150000X-0.425000X-0.150000X0.425000X-0.150000X0.425000X0.150000X0*%
%ADD28RoundRect,0.075000X-0.500000X0.075000X-0.500000X-0.075000X0.500000X-0.075000X0.500000X0.075000X0*%
%ADD29RoundRect,0.250000X-0.750000X0.840000X-0.750000X-0.840000X0.750000X-0.840000X0.750000X0.840000X0*%
%ADD30RoundRect,0.250000X-0.255000X0.255000X-0.255000X-0.255000X0.255000X-0.255000X0.255000X0.255000X0*%
%ADD31RoundRect,0.062500X-0.062500X0.350000X-0.062500X-0.350000X0.062500X-0.350000X0.062500X0.350000X0*%
%ADD32RoundRect,0.062500X-0.350000X0.062500X-0.350000X-0.062500X0.350000X-0.062500X0.350000X0.062500X0*%
%ADD33RoundRect,0.200000X0.200000X0.275000X-0.200000X0.275000X-0.200000X-0.275000X0.200000X-0.275000X0*%
%ADD34R,1.450000X1.000000*%
%ADD35RoundRect,0.150000X-0.150000X0.825000X-0.150000X-0.825000X0.150000X-0.825000X0.150000X0.825000X0*%
%ADD36RoundRect,0.112500X0.237500X-0.112500X0.237500X0.112500X-0.237500X0.112500X-0.237500X-0.112500X0*%
%ADD37RoundRect,0.137500X0.137500X-0.600000X0.137500X0.600000X-0.137500X0.600000X-0.137500X-0.600000X0*%
%ADD38RoundRect,0.137500X0.600000X-0.137500X0.600000X0.137500X-0.600000X0.137500X-0.600000X-0.137500X0*%
%ADD39RoundRect,0.100000X-0.100000X0.637500X-0.100000X-0.637500X0.100000X-0.637500X0.100000X0.637500X0*%
%ADD40RoundRect,0.250000X0.475000X-0.250000X0.475000X0.250000X-0.475000X0.250000X-0.475000X-0.250000X0*%
G04 APERTURE END LIST*
D10*
%TO.C,D1*%
X127220000Y-93985000D03*
D11*
X127220000Y-93100000D03*
%TD*%
D12*
%TO.C,D3*%
X162520000Y-83662500D03*
X162520000Y-85237500D03*
%TD*%
D13*
%TO.C,C7*%
X148950000Y-111015000D03*
X148950000Y-109465000D03*
%TD*%
D14*
%TO.C,C23*%
X165245000Y-106760000D03*
X163695000Y-106760000D03*
%TD*%
D13*
%TO.C,C2*%
X135500000Y-93905000D03*
X135500000Y-92355000D03*
%TD*%
D15*
%TO.C,XTAL1*%
X143550000Y-100720000D03*
X141650000Y-100720000D03*
%TD*%
D16*
%TO.C,R14*%
X152070000Y-112635000D03*
X152070000Y-110985000D03*
%TD*%
D17*
%TO.C,U7*%
X160060000Y-108300000D03*
X160060000Y-109570000D03*
X160060000Y-110840000D03*
X160060000Y-112110000D03*
X165010000Y-112110000D03*
X165010000Y-110840000D03*
X165010000Y-109570000D03*
X165010000Y-108300000D03*
%TD*%
D16*
%TO.C,R9*%
X132120000Y-102255000D03*
X132120000Y-100605000D03*
%TD*%
D18*
%TO.C,R26*%
X125785000Y-87410000D03*
X127435000Y-87410000D03*
%TD*%
D19*
%TO.C,R21*%
X166810000Y-104635000D03*
X166810000Y-106285000D03*
%TD*%
%TO.C,R3*%
X129230000Y-101945000D03*
X129230000Y-103595000D03*
%TD*%
D20*
%TO.C,D8*%
X120392500Y-87390000D03*
X121967500Y-87390000D03*
%TD*%
D21*
%TO.C,C12*%
X136655000Y-101770000D03*
X138205000Y-101770000D03*
%TD*%
D22*
%TO.C,C1*%
X133550000Y-93995000D03*
X133550000Y-91045000D03*
%TD*%
D18*
%TO.C,R7*%
X135155000Y-104770000D03*
X136805000Y-104770000D03*
%TD*%
D19*
%TO.C,R17*%
X168595000Y-109410000D03*
X168595000Y-111060000D03*
%TD*%
D17*
%TO.C,U3*%
X142415000Y-93595000D03*
X142415000Y-94865000D03*
X142415000Y-96135000D03*
X142415000Y-97405000D03*
X147365000Y-97405000D03*
X147365000Y-96135000D03*
X147365000Y-94865000D03*
X147365000Y-93595000D03*
%TD*%
D23*
%TO.C,D2*%
X172432500Y-111197500D03*
X172432500Y-109297500D03*
X170557500Y-110247500D03*
%TD*%
D24*
%TO.C,FB1*%
X127167500Y-95780000D03*
X125592500Y-95780000D03*
%TD*%
D18*
%TO.C,R8*%
X133365000Y-106300000D03*
X135015000Y-106300000D03*
%TD*%
D25*
%TO.C,C4*%
X129130000Y-98885000D03*
X129130000Y-100435000D03*
%TD*%
%TO.C,C8*%
X133660000Y-100655000D03*
X133660000Y-102205000D03*
%TD*%
D13*
%TO.C,C3*%
X129130000Y-97435000D03*
X129130000Y-95885000D03*
%TD*%
D26*
%TO.C,XTAL2*%
X153845000Y-88550000D03*
X151435000Y-88550000D03*
%TD*%
D19*
%TO.C,R19*%
X145670000Y-99305000D03*
X145670000Y-100955000D03*
%TD*%
D27*
%TO.C,J1*%
X123800000Y-94960000D03*
X123800000Y-95760000D03*
D28*
X123800000Y-96910000D03*
X123800000Y-97910000D03*
X123800000Y-98410000D03*
X123800000Y-99410000D03*
D27*
X123800000Y-100560000D03*
X123800000Y-101360000D03*
X123800000Y-101360000D03*
X123800000Y-100560000D03*
D28*
X123800000Y-99910000D03*
X123800000Y-98910000D03*
X123800000Y-97410000D03*
X123800000Y-96410000D03*
D27*
X123800000Y-95760000D03*
X123800000Y-94960000D03*
D29*
X123225000Y-93050000D03*
X119295000Y-93050000D03*
X123225000Y-103270000D03*
X119295000Y-103270000D03*
%TD*%
D30*
%TO.C,U4*%
X137387500Y-97275000D03*
X136137500Y-97275000D03*
X137387500Y-98525000D03*
X136137500Y-98525000D03*
D31*
X137762500Y-95962500D03*
X137262500Y-95962500D03*
X136762500Y-95962500D03*
X136262500Y-95962500D03*
X135762500Y-95962500D03*
D32*
X134825000Y-96900000D03*
X134825000Y-97400000D03*
X134825000Y-97900000D03*
X134825000Y-98400000D03*
X134825000Y-98900000D03*
D31*
X135762500Y-99837500D03*
X136262500Y-99837500D03*
X136762500Y-99837500D03*
X137262500Y-99837500D03*
X137762500Y-99837500D03*
D32*
X138700000Y-98900000D03*
X138700000Y-98400000D03*
X138700000Y-97900000D03*
X138700000Y-97400000D03*
X138700000Y-96900000D03*
%TD*%
D21*
%TO.C,C21*%
X140255000Y-103220000D03*
X141805000Y-103220000D03*
%TD*%
D22*
%TO.C,C14*%
X131230000Y-93995000D03*
X131230000Y-91045000D03*
%TD*%
D16*
%TO.C,R2*%
X125720000Y-93565000D03*
X125720000Y-91915000D03*
%TD*%
%TO.C,R13*%
X129060000Y-81100000D03*
X129060000Y-79450000D03*
%TD*%
D33*
%TO.C,R4*%
X143205000Y-91500000D03*
X141555000Y-91500000D03*
%TD*%
D19*
%TO.C,R15*%
X167055000Y-107825000D03*
X167055000Y-109475000D03*
%TD*%
D18*
%TO.C,R20*%
X166965000Y-99720000D03*
X168615000Y-99720000D03*
%TD*%
D14*
%TO.C,C22*%
X149155000Y-113020000D03*
X147605000Y-113020000D03*
%TD*%
D21*
%TO.C,C27*%
X151325000Y-86530000D03*
X152875000Y-86530000D03*
%TD*%
%TO.C,C13*%
X135205000Y-103280000D03*
X136755000Y-103280000D03*
%TD*%
D18*
%TO.C,R5*%
X130525000Y-98900000D03*
X132175000Y-98900000D03*
%TD*%
D14*
%TO.C,C11*%
X158465000Y-89710000D03*
X156915000Y-89710000D03*
%TD*%
%TO.C,C15*%
X147380000Y-91970000D03*
X145830000Y-91970000D03*
%TD*%
%TO.C,C20*%
X144820000Y-103230000D03*
X143270000Y-103230000D03*
%TD*%
D18*
%TO.C,R6*%
X130525000Y-97420000D03*
X132175000Y-97420000D03*
%TD*%
%TO.C,R22*%
X162535000Y-87470000D03*
X164185000Y-87470000D03*
%TD*%
D13*
%TO.C,C26*%
X155400000Y-89055000D03*
X155400000Y-87505000D03*
%TD*%
D25*
%TO.C,C9*%
X178800000Y-90125000D03*
X178800000Y-91675000D03*
%TD*%
D33*
%TO.C,R10*%
X132365000Y-103780000D03*
X130715000Y-103780000D03*
%TD*%
D34*
%TO.C,SW1*%
X136225000Y-81160000D03*
X131075000Y-81160000D03*
X136225000Y-79460000D03*
X131075000Y-79460000D03*
%TD*%
D35*
%TO.C,U8*%
X172365000Y-101805000D03*
X171095000Y-101805000D03*
X169825000Y-101805000D03*
X168555000Y-101805000D03*
X168555000Y-106755000D03*
X169825000Y-106755000D03*
X171095000Y-106755000D03*
X172365000Y-106755000D03*
%TD*%
D16*
%TO.C,R11*%
X136150000Y-84855000D03*
X136150000Y-83205000D03*
%TD*%
D18*
%TO.C,R66*%
X157835000Y-87470000D03*
X159485000Y-87470000D03*
%TD*%
D19*
%TO.C,R25*%
X131910000Y-106225000D03*
X131910000Y-107875000D03*
%TD*%
D12*
%TO.C,D7*%
X139630000Y-106342500D03*
X139630000Y-107917500D03*
%TD*%
D36*
%TO.C,U1*%
X127660000Y-98837500D03*
X127660000Y-97537500D03*
X125660000Y-98187500D03*
%TD*%
D37*
%TO.C,U2*%
X154460000Y-103372500D03*
X155260000Y-103372500D03*
X156060000Y-103372500D03*
X156860000Y-103372500D03*
X157660000Y-103372500D03*
X158460000Y-103372500D03*
X159260000Y-103372500D03*
X160060000Y-103372500D03*
X160860000Y-103372500D03*
X161660000Y-103372500D03*
X162460000Y-103372500D03*
D38*
X164122500Y-101710000D03*
X164122500Y-100910000D03*
X164122500Y-100110000D03*
X164122500Y-99310000D03*
X164122500Y-98510000D03*
X164122500Y-97710000D03*
X164122500Y-96910000D03*
X164122500Y-96110000D03*
X164122500Y-95310000D03*
X164122500Y-94510000D03*
X164122500Y-93710000D03*
D37*
X162460000Y-92047500D03*
X161660000Y-92047500D03*
X160860000Y-92047500D03*
X160060000Y-92047500D03*
X159260000Y-92047500D03*
X158460000Y-92047500D03*
X157660000Y-92047500D03*
X156860000Y-92047500D03*
X156060000Y-92047500D03*
X155260000Y-92047500D03*
X154460000Y-92047500D03*
D38*
X152797500Y-93710000D03*
X152797500Y-94510000D03*
X152797500Y-95310000D03*
X152797500Y-96110000D03*
X152797500Y-96910000D03*
X152797500Y-97710000D03*
X152797500Y-98510000D03*
X152797500Y-99310000D03*
X152797500Y-100110000D03*
X152797500Y-100910000D03*
X152797500Y-101710000D03*
%TD*%
D39*
%TO.C,U6*%
X147480000Y-105185000D03*
X146830000Y-105185000D03*
X146180000Y-105185000D03*
X145530000Y-105185000D03*
X144880000Y-105185000D03*
X144230000Y-105185000D03*
X143580000Y-105185000D03*
X142930000Y-105185000D03*
X142280000Y-105185000D03*
X141630000Y-105185000D03*
X141630000Y-110910000D03*
X142280000Y-110910000D03*
X142930000Y-110910000D03*
X143580000Y-110910000D03*
X144230000Y-110910000D03*
X144880000Y-110910000D03*
X145530000Y-110910000D03*
X146180000Y-110910000D03*
X146830000Y-110910000D03*
X147480000Y-110910000D03*
%TD*%
D14*
%TO.C,C24*%
X165245000Y-105240000D03*
X163695000Y-105240000D03*
%TD*%
D16*
%TO.C,R1*%
X125640000Y-104175000D03*
X125640000Y-102525000D03*
%TD*%
D19*
%TO.C,R18*%
X147580000Y-99305000D03*
X147580000Y-100955000D03*
%TD*%
D40*
%TO.C,C5*%
X127410000Y-104180000D03*
X127410000Y-102280000D03*
%TD*%
D19*
%TO.C,R16*%
X167045000Y-110925000D03*
X167045000Y-112575000D03*
%TD*%
D12*
%TO.C,D11*%
X157830000Y-83662500D03*
X157830000Y-85237500D03*
%TD*%
%TO.C,D5*%
X137340000Y-106382500D03*
X137340000Y-107957500D03*
%TD*%
D21*
%TO.C,C6*%
X159275000Y-105190000D03*
X160825000Y-105190000D03*
%TD*%
D33*
%TO.C,R12*%
X131105000Y-83280000D03*
X129455000Y-83280000D03*
%TD*%
D18*
%TO.C,R24*%
X133375000Y-107780000D03*
X135025000Y-107780000D03*
%TD*%
D13*
%TO.C,C17*%
X150500000Y-111015000D03*
X150500000Y-109465000D03*
%TD*%
D21*
%TO.C,C25*%
X171085000Y-99640000D03*
X172635000Y-99640000D03*
%TD*%
M02*
