%TF.GenerationSoftware,KiCad,Pcbnew,9.0.2*%
%TF.CreationDate,2025-09-25T10:32:18+03:00*%
%TF.ProjectId,uPIC46,75504943-3436-42e6-9b69-6361645f7063,V0*%
%TF.SameCoordinates,Original*%
%TF.FileFunction,Paste,Bot*%
%TF.FilePolarity,Positive*%
%FSLAX46Y46*%
G04 Gerber Fmt 4.6, Leading zero omitted, Abs format (unit mm)*
G04 Created by KiCad (PCBNEW 9.0.2) date 2025-09-25 10:32:18*
%MOMM*%
%LPD*%
G01*
G04 APERTURE LIST*
G04 Aperture macros list*
%AMRoundRect*
0 Rectangle with rounded corners*
0 $1 Rounding radius*
0 $2 $3 $4 $5 $6 $7 $8 $9 X,Y pos of 4 corners*
0 Add a 4 corners polygon primitive as box body*
4,1,4,$2,$3,$4,$5,$6,$7,$8,$9,$2,$3,0*
0 Add four circle primitives for the rounded corners*
1,1,$1+$1,$2,$3*
1,1,$1+$1,$4,$5*
1,1,$1+$1,$6,$7*
1,1,$1+$1,$8,$9*
0 Add four rect primitives between the rounded corners*
20,1,$1+$1,$2,$3,$4,$5,0*
20,1,$1+$1,$4,$5,$6,$7,0*
20,1,$1+$1,$6,$7,$8,$9,0*
20,1,$1+$1,$8,$9,$2,$3,0*%
G04 Aperture macros list end*
%ADD10R,2.000000X1.200000*%
%ADD11RoundRect,0.250000X0.650000X-0.325000X0.650000X0.325000X-0.650000X0.325000X-0.650000X-0.325000X0*%
%ADD12RoundRect,0.225000X0.250000X-0.225000X0.250000X0.225000X-0.250000X0.225000X-0.250000X-0.225000X0*%
%ADD13RoundRect,0.200000X-0.275000X0.200000X-0.275000X-0.200000X0.275000X-0.200000X0.275000X0.200000X0*%
%ADD14RoundRect,0.250000X0.325000X0.650000X-0.325000X0.650000X-0.325000X-0.650000X0.325000X-0.650000X0*%
%ADD15RoundRect,0.200000X-0.200000X-0.275000X0.200000X-0.275000X0.200000X0.275000X-0.200000X0.275000X0*%
%ADD16RoundRect,0.150000X0.825000X0.150000X-0.825000X0.150000X-0.825000X-0.150000X0.825000X-0.150000X0*%
%ADD17RoundRect,0.200000X0.275000X-0.200000X0.275000X0.200000X-0.275000X0.200000X-0.275000X-0.200000X0*%
%ADD18RoundRect,0.375000X0.625000X0.375000X-0.625000X0.375000X-0.625000X-0.375000X0.625000X-0.375000X0*%
%ADD19RoundRect,0.500000X0.500000X1.400000X-0.500000X1.400000X-0.500000X-1.400000X0.500000X-1.400000X0*%
%ADD20R,0.600000X1.300000*%
G04 APERTURE END LIST*
D10*
%TO.C,L3*%
X142750000Y-105570000D03*
X142750000Y-108110000D03*
X135250000Y-108110000D03*
X135250000Y-105570000D03*
%TD*%
D11*
%TO.C,C57*%
X156640000Y-107355000D03*
X156640000Y-104405000D03*
%TD*%
D12*
%TO.C,C59*%
X145320000Y-105955000D03*
X145320000Y-104405000D03*
%TD*%
%TO.C,C58*%
X154600000Y-107325000D03*
X154600000Y-105775000D03*
%TD*%
%TO.C,C62*%
X145320000Y-109005000D03*
X145320000Y-107455000D03*
%TD*%
D13*
%TO.C,R38*%
X147540000Y-101175000D03*
X147540000Y-102825000D03*
%TD*%
D11*
%TO.C,C18*%
X133940000Y-89175000D03*
X133940000Y-86225000D03*
%TD*%
%TO.C,C10*%
X138660000Y-89180000D03*
X138660000Y-86230000D03*
%TD*%
D14*
%TO.C,C16*%
X131575000Y-94100000D03*
X128625000Y-94100000D03*
%TD*%
D15*
%TO.C,R31*%
X138215000Y-105620000D03*
X139865000Y-105620000D03*
%TD*%
D16*
%TO.C,U9*%
X152505000Y-104825000D03*
X152505000Y-106095000D03*
X152505000Y-107365000D03*
X152505000Y-108635000D03*
X147555000Y-108635000D03*
X147555000Y-107365000D03*
X147555000Y-106095000D03*
X147555000Y-104825000D03*
%TD*%
D17*
%TO.C,R32*%
X133110000Y-107665000D03*
X133110000Y-106015000D03*
%TD*%
D18*
%TO.C,U5*%
X131510000Y-86960000D03*
X131510000Y-89260000D03*
D19*
X125210000Y-89260000D03*
D18*
X131510000Y-91560000D03*
%TD*%
D11*
%TO.C,C19*%
X136290000Y-89185000D03*
X136290000Y-86235000D03*
%TD*%
D20*
%TO.C,D6*%
X129370000Y-111280000D03*
X131270000Y-111280000D03*
X130320000Y-113380000D03*
%TD*%
D15*
%TO.C,R39*%
X138215000Y-108090000D03*
X139865000Y-108090000D03*
%TD*%
M02*
