%TF.GenerationSoftware,KiCad,Pcbnew,9.0.2*%
%TF.CreationDate,2025-09-25T10:32:18+03:00*%
%TF.ProjectId,uPIC46,75504943-3436-42e6-9b69-6361645f7063,V0*%
%TF.SameCoordinates,Original*%
%TF.FileFunction,Soldermask,Bot*%
%TF.FilePolarity,Negative*%
%FSLAX46Y46*%
G04 Gerber Fmt 4.6, Leading zero omitted, Abs format (unit mm)*
G04 Created by KiCad (PCBNEW 9.0.2) date 2025-09-25 10:32:18*
%MOMM*%
%LPD*%
G01*
G04 APERTURE LIST*
G04 Aperture macros list*
%AMRoundRect*
0 Rectangle with rounded corners*
0 $1 Rounding radius*
0 $2 $3 $4 $5 $6 $7 $8 $9 X,Y pos of 4 corners*
0 Add a 4 corners polygon primitive as box body*
4,1,4,$2,$3,$4,$5,$6,$7,$8,$9,$2,$3,0*
0 Add four circle primitives for the rounded corners*
1,1,$1+$1,$2,$3*
1,1,$1+$1,$4,$5*
1,1,$1+$1,$6,$7*
1,1,$1+$1,$8,$9*
0 Add four rect primitives between the rounded corners*
20,1,$1+$1,$2,$3,$4,$5,0*
20,1,$1+$1,$4,$5,$6,$7,0*
20,1,$1+$1,$6,$7,$8,$9,0*
20,1,$1+$1,$8,$9,$2,$3,0*%
G04 Aperture macros list end*
%ADD10C,0.900000*%
%ADD11C,0.500000*%
%ADD12RoundRect,0.250001X-0.799999X-0.799999X0.799999X-0.799999X0.799999X0.799999X-0.799999X0.799999X0*%
%ADD13C,2.100000*%
%ADD14R,1.700000X1.700000*%
%ADD15C,1.700000*%
%ADD16C,3.200000*%
%ADD17C,0.650000*%
%ADD18RoundRect,0.250001X0.799999X-0.799999X0.799999X0.799999X-0.799999X0.799999X-0.799999X-0.799999X0*%
%ADD19RoundRect,0.102000X1.000000X0.600000X-1.000000X0.600000X-1.000000X-0.600000X1.000000X-0.600000X0*%
%ADD20RoundRect,0.250000X0.650000X-0.325000X0.650000X0.325000X-0.650000X0.325000X-0.650000X-0.325000X0*%
%ADD21RoundRect,0.225000X0.250000X-0.225000X0.250000X0.225000X-0.250000X0.225000X-0.250000X-0.225000X0*%
%ADD22RoundRect,0.200000X-0.275000X0.200000X-0.275000X-0.200000X0.275000X-0.200000X0.275000X0.200000X0*%
%ADD23C,1.000000*%
%ADD24RoundRect,0.250000X0.325000X0.650000X-0.325000X0.650000X-0.325000X-0.650000X0.325000X-0.650000X0*%
%ADD25RoundRect,0.200000X-0.200000X-0.275000X0.200000X-0.275000X0.200000X0.275000X-0.200000X0.275000X0*%
%ADD26RoundRect,0.150000X0.825000X0.150000X-0.825000X0.150000X-0.825000X-0.150000X0.825000X-0.150000X0*%
%ADD27RoundRect,0.200000X0.275000X-0.200000X0.275000X0.200000X-0.275000X0.200000X-0.275000X-0.200000X0*%
%ADD28RoundRect,0.375000X0.625000X0.375000X-0.625000X0.375000X-0.625000X-0.375000X0.625000X-0.375000X0*%
%ADD29RoundRect,0.500000X0.500000X1.400000X-0.500000X1.400000X-0.500000X-1.400000X0.500000X-1.400000X0*%
%ADD30RoundRect,0.070000X-0.300000X0.650000X-0.300000X-0.650000X0.300000X-0.650000X0.300000X0.650000X0*%
G04 APERTURE END LIST*
D10*
%TO.C,FID3*%
X121080000Y-109040000D03*
%TD*%
D11*
%TO.C,*%
X126700000Y-84900000D03*
%TD*%
D12*
%TO.C,J8*%
X127630000Y-114730000D03*
D13*
X132630000Y-114730000D03*
%TD*%
D14*
%TO.C,J4*%
X173810000Y-79760000D03*
D15*
X171270000Y-79760000D03*
X168730000Y-79760000D03*
X166190000Y-79760000D03*
X163650000Y-79760000D03*
X161110000Y-79760000D03*
%TD*%
D16*
%TO.C,H3*%
X181230000Y-81160000D03*
%TD*%
%TO.C,H4*%
X120950000Y-81100000D03*
%TD*%
D14*
%TO.C,J3*%
X182580000Y-86130000D03*
D15*
X182580000Y-88670000D03*
X182580000Y-91210000D03*
X182580000Y-93750000D03*
X182580000Y-96290000D03*
X182580000Y-98830000D03*
%TD*%
D11*
%TO.C,*%
X124166591Y-84900000D03*
%TD*%
D17*
%TO.C,J1*%
X122725000Y-95270000D03*
X122725000Y-101050000D03*
%TD*%
D14*
%TO.C,J6*%
X156660000Y-79750000D03*
D15*
X154120000Y-79750000D03*
X151580000Y-79750000D03*
X149040000Y-79750000D03*
X146500000Y-79750000D03*
X143960000Y-79750000D03*
%TD*%
D18*
%TO.C,J5*%
X179800000Y-109550000D03*
D13*
X179800000Y-104550000D03*
%TD*%
D11*
%TO.C,*%
X122650000Y-84900000D03*
%TD*%
%TO.C,*%
X123350000Y-89050000D03*
%TD*%
%TO.C,*%
X121950000Y-89050000D03*
%TD*%
%TO.C,*%
X122650000Y-89900000D03*
%TD*%
%TO.C,*%
X121950000Y-90750000D03*
%TD*%
%TO.C,*%
X123350000Y-90750000D03*
%TD*%
D14*
%TO.C,J2*%
X173790000Y-117450000D03*
D15*
X171250000Y-117450000D03*
X168710000Y-117450000D03*
X166170000Y-117450000D03*
X163630000Y-117450000D03*
X161090000Y-117450000D03*
X158550000Y-117450000D03*
X156010000Y-117450000D03*
X153470000Y-117450000D03*
X150930000Y-117450000D03*
X148390000Y-117450000D03*
X145850000Y-117450000D03*
X143310000Y-117450000D03*
X140770000Y-117450000D03*
%TD*%
D11*
%TO.C,*%
X125450000Y-84900000D03*
%TD*%
D16*
%TO.C,H2*%
X181230000Y-116355000D03*
%TD*%
%TO.C,H1*%
X120950000Y-116355000D03*
%TD*%
D19*
%TO.C,L3*%
X142750000Y-105570000D03*
X142750000Y-108110000D03*
X135250000Y-108110000D03*
X135250000Y-105570000D03*
%TD*%
D20*
%TO.C,C57*%
X156640000Y-107355000D03*
X156640000Y-104405000D03*
%TD*%
D21*
%TO.C,C59*%
X145320000Y-105955000D03*
X145320000Y-104405000D03*
%TD*%
%TO.C,C58*%
X154600000Y-107325000D03*
X154600000Y-105775000D03*
%TD*%
%TO.C,C62*%
X145320000Y-109005000D03*
X145320000Y-107455000D03*
%TD*%
D22*
%TO.C,R38*%
X147540000Y-101175000D03*
X147540000Y-102825000D03*
%TD*%
D20*
%TO.C,C18*%
X133940000Y-89175000D03*
X133940000Y-86225000D03*
%TD*%
%TO.C,C10*%
X138660000Y-89180000D03*
X138660000Y-86230000D03*
%TD*%
D23*
%TO.C,TP3*%
X140840000Y-89300000D03*
%TD*%
D24*
%TO.C,C16*%
X131575000Y-94100000D03*
X128625000Y-94100000D03*
%TD*%
D25*
%TO.C,R31*%
X138215000Y-105620000D03*
X139865000Y-105620000D03*
%TD*%
D26*
%TO.C,U9*%
X152505000Y-104825000D03*
X152505000Y-106095000D03*
X152505000Y-107365000D03*
X152505000Y-108635000D03*
X147555000Y-108635000D03*
X147555000Y-107365000D03*
X147555000Y-106095000D03*
X147555000Y-104825000D03*
%TD*%
D27*
%TO.C,R32*%
X133110000Y-107665000D03*
X133110000Y-106015000D03*
%TD*%
D28*
%TO.C,U5*%
X131510000Y-86960000D03*
X131510000Y-89260000D03*
D29*
X125210000Y-89260000D03*
D28*
X131510000Y-91560000D03*
%TD*%
D20*
%TO.C,C19*%
X136290000Y-89185000D03*
X136290000Y-86235000D03*
%TD*%
D30*
%TO.C,D6*%
X129370000Y-111280000D03*
X131270000Y-111280000D03*
X130320000Y-113380000D03*
%TD*%
D25*
%TO.C,R39*%
X138215000Y-108090000D03*
X139865000Y-108090000D03*
%TD*%
M02*
